<?xml version="1.0" standalone="no"?>
<!DOCTYPE svg PUBLIC "-//W3C//DTD SVG 20010904//EN"
 "http://www.w3.org/TR/2001/REC-SVG-20010904/DTD/svg10.dtd">
<svg version="1.0" xmlns="http://www.w3.org/2000/svg"
 width="2000.000000pt" height="800.000000pt" viewBox="0 0 2000.000000 800.000000"
 preserveAspectRatio="xMidYMid meet">
<metadata>
Created by potrace 1.16, written by Peter Selinger 2001-2019
</metadata>
<g transform="translate(0.000000,800.000000) scale(0.100000,-0.100000)"
fill="#000000" stroke="none">
<path d="M1413 5386 c-103 -33 -185 -105 -232 -205 l-26 -56 0 -1100 0 -1100
27 -57 c35 -76 99 -143 173 -181 l60 -32 1480 0 1480 0 66 32 c79 39 140 102
177 181 l27 57 0 1100 0 1100 -32 66 c-39 79 -102 140 -181 177 l-57 27 -1460
2 c-1188 1 -1468 -1 -1502 -11z m2805 -448 c286 -106 339 -501 92 -683 -66
-48 -148 -75 -230 -75 l-68 0 -231 -388 -230 -388 24 -60 c44 -106 25 -212
-51 -294 -62 -66 -122 -93 -204 -94 -116 0 -216 65 -261 168 -22 52 -29 130
-16 178 6 24 -9 41 -229 246 l-236 220 -36 -10 c-20 -6 -62 -7 -93 -4 l-57 7
-198 -206 c-166 -172 -199 -211 -197 -233 1 -15 3 -55 3 -89 2 -108 -55 -200
-157 -250 -174 -85 -383 33 -400 226 -6 69 7 122 47 184 56 88 180 141 281
121 l49 -11 203 206 203 206 -1 90 c0 81 3 95 27 137 37 62 91 105 157 125 98
28 189 3 263 -74 53 -55 72 -104 71 -191 l-1 -72 231 -216 c207 -193 233 -215
256 -209 14 4 48 10 75 14 l50 6 223 375 c122 206 223 379 223 384 0 6 -11 21
-24 35 -68 72 -108 216 -87 318 49 247 295 387 529 301z"/>
<path d="M13130 4010 l0 -970 130 0 130 0 0 970 0 970 -130 0 -130 0 0 -970z"/>
<path d="M16215 4964 c-95 -49 -130 -153 -86 -251 22 -48 80 -91 135 -100 107
-17 216 74 216 182 0 40 -22 100 -48 128 -48 53 -155 73 -217 41z"/>
<path d="M5760 4944 c-120 -23 -243 -89 -319 -170 -152 -162 -185 -403 -84
-597 68 -129 175 -196 453 -285 85 -27 182 -63 215 -80 75 -38 140 -106 155
-164 36 -131 -44 -292 -174 -349 -40 -18 -75 -24 -162 -27 -98 -4 -118 -1
-182 21 -42 15 -114 53 -171 91 -97 65 -125 75 -161 56 -17 -9 -110 -151 -110
-169 0 -15 142 -122 201 -152 151 -76 336 -109 498 -90 163 20 292 81 387 184
162 174 203 469 91 656 -68 114 -179 181 -453 274 -180 62 -247 92 -300 139
-129 114 -82 320 91 400 43 20 66 23 165 23 130 -1 180 -16 299 -93 100 -65
123 -58 182 61 l41 82 -40 36 c-52 46 -156 101 -247 129 -56 18 -99 23 -210
25 -77 2 -151 1 -165 -1z"/>
<path d="M15294 4880 c-12 -4 -24 -16 -27 -25 -4 -8 -20 -109 -37 -222 -17
-114 -35 -210 -40 -213 -6 -4 -57 -12 -115 -19 l-105 -13 0 -72 c0 -99 8 -106
128 -106 l91 0 3 -477 c3 -469 3 -479 25 -533 66 -163 238 -229 468 -178 56
12 175 70 199 97 15 17 13 24 -30 94 -26 42 -55 79 -65 82 -10 4 -41 -7 -74
-26 -99 -56 -186 -40 -227 42 -16 31 -18 75 -18 467 l0 432 120 0 120 0 0 105
0 105 -120 0 -120 0 0 235 0 235 -77 -1 c-43 0 -87 -4 -99 -9z"/>
<path d="M11352 4396 c-92 -23 -188 -104 -246 -207 l-23 -40 -6 38 c-4 21 -7
57 -7 80 0 46 -15 94 -33 105 -7 4 -56 8 -109 8 l-98 0 0 -670 0 -670 135 0
135 0 0 425 0 425 34 68 c79 156 165 199 358 177 62 -7 67 -6 81 16 9 14 18
63 22 122 l7 97 -37 16 c-51 21 -150 26 -213 10z"/>
<path d="M7118 4384 c-140 -34 -288 -142 -361 -265 -60 -102 -88 -204 -94
-344 -17 -382 160 -657 471 -730 133 -32 357 -13 489 40 59 24 167 96 200 132
17 20 16 22 -24 74 -24 30 -47 57 -53 61 -24 17 -68 6 -148 -37 -112 -59 -189
-78 -298 -73 -218 11 -342 147 -374 411 l-6 47 453 0 c339 0 456 3 465 12 17
17 15 201 -3 273 -52 205 -197 355 -386 400 -79 18 -254 18 -331 -1z m319
-210 c93 -45 159 -141 170 -250 l6 -54 -342 0 c-187 0 -341 1 -341 3 0 15 36
120 52 150 81 160 291 230 455 151z"/>
<path d="M8525 4390 c-173 -35 -324 -150 -400 -305 -57 -115 -77 -209 -78
-365 0 -169 17 -254 78 -377 103 -209 276 -313 520 -313 129 0 221 20 321 69
77 38 174 115 174 138 0 6 -20 36 -46 67 -56 69 -83 73 -154 21 -89 -65 -154
-88 -249 -89 -73 0 -95 4 -148 28 -148 67 -223 218 -223 451 0 277 108 442
311 474 94 15 166 1 275 -55 64 -32 98 -44 113 -39 11 3 42 34 68 67 l47 61
-45 39 c-60 52 -163 104 -240 123 -68 16 -255 19 -324 5z"/>
<path d="M12145 4390 c-222 -45 -389 -208 -456 -445 -31 -110 -31 -321 0 -440
65 -246 226 -409 457 -461 93 -20 295 -15 389 10 90 24 198 81 257 135 l53 49
-46 58 c-60 77 -83 80 -182 26 -114 -63 -201 -86 -311 -80 -143 8 -238 61
-303 170 -35 58 -73 188 -73 250 l0 38 449 0 c406 0 450 2 462 17 18 21 18
188 0 263 -49 203 -194 354 -387 404 -66 17 -237 20 -309 6z m303 -221 c93
-46 148 -129 168 -256 l7 -43 -343 0 -343 0 6 36 c8 48 57 151 91 192 91 107
274 139 414 71z"/>
<path d="M17101 4379 c-223 -58 -371 -221 -426 -472 -27 -120 -17 -353 18
-462 68 -206 213 -350 403 -400 139 -36 357 -11 490 56 69 35 164 113 164 136
0 14 -63 99 -85 115 -22 17 -69 7 -105 -22 -204 -162 -477 -112 -576 105 -71
155 -71 407 -1 558 52 112 141 177 266 198 89 14 168 -2 268 -57 46 -24 91
-44 101 -44 19 0 50 30 98 94 l28 39 -41 37 c-57 51 -166 106 -244 125 -92 21
-265 19 -358 -6z"/>
<path d="M18243 4385 c-120 -33 -200 -85 -256 -167 -99 -146 -85 -342 33 -452
63 -59 122 -88 304 -147 218 -73 276 -116 276 -208 0 -117 -100 -191 -256
-191 -87 0 -146 18 -235 71 -102 61 -136 54 -193 -41 l-36 -62 22 -18 c168
-137 441 -184 658 -113 177 57 290 211 290 396 0 102 -22 160 -85 223 -62 62
-134 98 -322 159 -161 52 -229 91 -257 148 -16 33 -17 45 -7 78 16 55 53 93
113 119 44 19 65 22 142 18 82 -4 100 -9 184 -48 115 -54 131 -51 181 34 l35
59 -39 34 c-51 44 -144 88 -226 108 -80 18 -256 19 -326 0z"/>
<path d="M9360 3897 c0 -527 1 -541 59 -655 131 -260 516 -294 768 -68 l51 46
7 -65 c11 -100 23 -109 139 -113 l96 -4 0 671 0 671 -130 0 -130 0 0 -484 0
-484 -47 -46 c-27 -25 -79 -63 -118 -83 -120 -63 -266 -58 -344 13 -21 19 -49
58 -62 87 l-24 52 -3 473 -3 472 -130 0 -129 0 0 -483z"/>
<path d="M13593 4368 c3 -7 125 -286 271 -620 146 -333 266 -610 266 -615 0
-5 -50 -117 -111 -249 -61 -131 -115 -249 -120 -261 l-9 -23 119 0 c98 0 123
3 140 18 14 11 159 336 392 877 204 473 373 866 376 873 4 9 -24 12 -119 12
-116 0 -126 -1 -145 -22 -19 -21 -373 -872 -373 -897 0 -26 -18 -8 -29 29 -25
84 -362 866 -378 878 -11 8 -59 12 -151 12 -103 0 -133 -3 -129 -12z"/>
<path d="M16160 3695 l0 -685 135 0 135 0 0 685 0 685 -135 0 -135 0 0 -685z"/>
</g>
</svg>
